<svg xmlns="http://www.w3.org/2000/svg" xmlns:xlink="http://www.w3.org/1999/xlink" width="21.4" height="24.16" viewBox="0 0 21.4 24.16">
  <defs>
    <clipPath id="clip-path">
      <rect id="Rectángulo_629" data-name="Rectángulo 629" width="21.4" height="24.16" transform="translate(1636.439 2660.05)" fill="none"/>
    </clipPath>
  </defs>
  <g id="icon_pdf" transform="translate(-1636.439 -2660.05)" opacity="0.5">
    <g id="Grupo_837" data-name="Grupo 837">
      <g id="Grupo_836" data-name="Grupo 836" clip-path="url(#clip-path)">
        <path id="Trazado_54" data-name="Trazado 54" d="M1642.1,2672.426c0-.651-.451-1.039-1.248-1.039a2.691,2.691,0,0,0-.661.063v2.089a2.466,2.466,0,0,0,.534.042c.85,0,1.375-.431,1.375-1.155"/>
        <path id="Trazado_55" data-name="Trazado 55" d="M1647.033,2671.408a3.37,3.37,0,0,0-.725.063v4.629a2.816,2.816,0,0,0,.556.033,2.195,2.195,0,0,0,2.394-2.479,2.029,2.029,0,0,0-2.225-2.246"/>
        <path id="Trazado_56" data-name="Trazado 56" d="M1656.488,2668.69h-.58v-2.8a.3.3,0,0,0-.006-.053.462.462,0,0,0-.112-.307l-4.657-5.321,0,0a.556.556,0,0,0-.095-.079l-.032-.02a.654.654,0,0,0-.093-.038l-.024-.007a.441.441,0,0,0-.11-.014h-11.449a.948.948,0,0,0-.947.947v7.7h-.58a1.354,1.354,0,0,0-1.355,1.352v7.043a1.357,1.357,0,0,0,1.355,1.355h.58v4.82a.948.948,0,0,0,.947.947h15.635a.949.949,0,0,0,.947-.947v-4.82h.58a1.357,1.357,0,0,0,1.355-1.355v-7.042a1.354,1.354,0,0,0-1.355-1.353m-17.162-7.7H1650.3v4.848a.474.474,0,0,0,.473.474h4.186v2.375h-15.635Zm11.633,12.609a3.586,3.586,0,0,1-1.178,2.866,5.075,5.075,0,0,1-3.262.913,13.74,13.74,0,0,1-1.817-.106v-6.949a14.364,14.364,0,0,1,2.162-.146,4.558,4.558,0,0,1,2.9.755,3.135,3.135,0,0,1,1.2,2.667m-12.355,3.706v-6.982a13.2,13.2,0,0,1,2.162-.146,3.394,3.394,0,0,1,2.162.567,2.066,2.066,0,0,1,.755,1.637,2.265,2.265,0,0,1-.651,1.681,3.285,3.285,0,0,1-2.3.745,3.828,3.828,0,0,1-.545-.033v2.531Zm16.357,5.695h-15.635v-4.563h15.635Zm1.373-11.459h-2.72v1.617h2.54v1.3h-2.54v2.845h-1.6v-7.076h4.324Z"/>
      </g>
    </g>
  </g>
</svg>
