<svg xmlns="http://www.w3.org/2000/svg" width="272.682" height="21.525" viewBox="0 0 272.682 21.525">
  <path id="logo" d="M269.329,71.679l4.488-9.093,4.529,9.1Zm3.425-12.588-10.043,20.5,2.736,0,2.7-5.513,11.334,0,2.779,5.517h2.777l-10.152-20.5Zm15.9,17.649a1.6,1.6,0,0,0-1.557,1.71,1.57,1.57,0,0,0,1.555,1.677,1.552,1.552,0,0,0,1.528-1.677,1.583,1.583,0,0,0-1.526-1.71m-84.32-2.222a2.96,2.96,0,0,1-3-2.837c0-1.124.8-1.729,1.642-2.341l4.026,3.8a3.444,3.444,0,0,1-2.666,1.38m-1.941-8.812a1.45,1.45,0,0,1,1.543-1.428,1.467,1.467,0,0,1,1.5,1.6,2.265,2.265,0,0,1-1.549,2.335c-.868-.772-1.491-1.219-1.491-2.507m8.779,9.114a9.151,9.151,0,0,1-2.862-2.387c.45-.519,1.436-3.048,1.693-3.325a1.945,1.945,0,0,1,1.218-.517l0-.426c-.558.05-1.116.141-1.683.141s-1.132-.091-1.689-.137l0,.422c.722.164,1,.257,1,1.05a6.014,6.014,0,0,1-.914,2.348L204.4,68.617a3.633,3.633,0,0,0,2.2-2.6c0-1.667-1.52-2.149-2.762-2.149a2.619,2.619,0,0,0-2.624,2.614,3.581,3.581,0,0,0,1.4,2.53,3.946,3.946,0,0,0-2.459,3.422,3.333,3.333,0,0,0,3.466,3.233,4.779,4.779,0,0,0,3.722-2.179l1.672,1.9c.49-.041.977-.09,1.465-.092s.985.051,1.482.094l0-.423a2.333,2.333,0,0,1-.794-.139m-33.834,2.893c-4.562,0-7.985-3.462-7.982-8.331s3.422-8.372,7.989-8.368c4.6,0,7.987,3.5,7.987,8.368,0,4.832-3.39,8.333-7.994,8.331m.009-19.1a10.355,10.355,0,0,0-10.618,10.763,10.634,10.634,0,1,0,21.268.006,10.389,10.389,0,0,0-10.65-10.769m75.9,21.048h2.588l0-20.695-2.586,0ZM235.408,77.72c-4.566,0-7.991-3.461-7.988-8.33s3.423-8.366,7.988-8.37a7.531,7.531,0,0,1,6.847,3.921l2.131-1.52a10.68,10.68,0,0,0-19.592,5.969,10.679,10.679,0,0,0,20.049,5.171l-2.053-1.518a8.056,8.056,0,0,1-7.382,4.677M144.29,68.2l.005-6.773,9.164,0c2.476,0,3.8,1.292,3.8,3.425,0,2.166-1.33,3.345-3.919,3.345Zm15.637-3.42c0-3.577-2.393-5.706-6.429-5.706l-11.753,0-.007,20.5,2.55,0,0-8.975h7.951l5.134,8.979h2.814l-5.134-9.017a5.7,5.7,0,0,0,4.872-5.781M336.543,78.947c-.888,0-1.464-1.067-1.464-2.945,0-1.966.623-3.01,1.467-3.01,1.021,0,1.466,1.167,1.466,2.944,0,1.845-.478,3.011-1.469,3.011m.07-6.71c-1.468,0-2.524,1.321-2.525,3.754.023,2.39.99,3.711,2.4,3.711,1.588,0,2.51-1.355,2.51-3.81,0-2.3-.876-3.655-2.386-3.655M95.422,59.06l-2.548,0,0,20.5,15.939,0V77.205H95.419ZM76.929,77.7c-4.565,0-7.989-3.464-7.986-8.334S72.371,61,76.935,61a7.521,7.521,0,0,1,6.846,3.917L85.912,63.4a10.682,10.682,0,0,0-19.6,5.968,10.679,10.679,0,0,0,20.047,5.177l-2.055-1.527a8.045,8.045,0,0,1-7.38,4.682m240.4,1.291a1.331,1.331,0,0,1-1.443-1.367,1.582,1.582,0,0,1,1.3-1.5c.978.279,1.589.713,1.589,1.578a1.308,1.308,0,0,1-1.445,1.289m-1.244-4.9a1.152,1.152,0,0,1,1.258-1.155,1.123,1.123,0,0,1,1.221,1.179,1.426,1.426,0,0,1-1.1,1.311c-.833-.223-1.388-.613-1.379-1.335m2.222,1.645V75.7a1.835,1.835,0,0,0,1.2-1.688,1.869,1.869,0,0,0-2.111-1.778,2.026,2.026,0,0,0-2.243,1.922,1.783,1.783,0,0,0,1.154,1.623l.012.032a2.08,2.08,0,0,0-1.434,1.945c0,1.055.911,1.944,2.42,1.944a2.219,2.219,0,0,0,2.457-2.1,2.014,2.014,0,0,0-1.456-1.866m8.812,3.257a1.332,1.332,0,0,1-1.444-1.367,1.579,1.579,0,0,1,1.3-1.5c.979.277,1.589.711,1.589,1.578a1.307,1.307,0,0,1-1.443,1.288m-1.245-4.9a1.151,1.151,0,0,1,1.257-1.156,1.121,1.121,0,0,1,1.221,1.178,1.424,1.424,0,0,1-1.1,1.311c-.834-.223-1.388-.611-1.378-1.333m2.223,1.644V75.7a1.838,1.838,0,0,0,1.2-1.69,1.868,1.868,0,0,0-2.111-1.776,2.026,2.026,0,0,0-2.244,1.921A1.784,1.784,0,0,0,326.1,75.78l.012.031a2.082,2.082,0,0,0-1.435,1.945c0,1.055.91,1.944,2.422,1.945a2.218,2.218,0,0,0,2.456-2.1,2.014,2.014,0,0,0-1.455-1.866m-208.872-4.08,4.492-9.092,4.527,9.093Zm3.428-12.589-10.049,20.5,2.739-.006,2.7-5.512h11.334l2.776,5.519h2.775l-10.152-20.5ZM306.58,73.2l.188.745,1.254-.678h.022v6.311h.945l0-7.223h-.833Z" transform="translate(-66.317 -58.602)" fill="#fff"/>
</svg>
