<?xml version="1.0" standalone="no"?>
<!DOCTYPE svg PUBLIC "-//W3C//DTD SVG 20010904//EN"
 "http://www.w3.org/TR/2001/REC-SVG-20010904/DTD/svg10.dtd">
<svg version="1.0" xmlns="http://www.w3.org/2000/svg"
 width="565.000000pt" height="619.000000pt" viewBox="0 0 565.000000 619.000000"
 preserveAspectRatio="xMidYMid meet">
<metadata>
Created by potrace 1.15, written by Peter Selinger 2001-2017
</metadata>
<g transform="translate(0.000000,619.000000) scale(0.100000,-0.100000)"
fill="#000000" stroke="none">
<path d="M642 4689 c-109 -18 -206 -90 -259 -191 l-28 -53 0 -1375 0 -1375 28
-53 c56 -107 152 -174 274 -192 89 -13 4323 -13 4412 0 119 17 225 90 274 190
l22 45 0 1385 0 1385 -22 45 c-49 100 -155 173 -274 190 -82 12 -4355 11
-4427 -1z m4493 -113 c28 -12 67 -41 87 -64 72 -80 68 2 68 -1442 0 -1444 4
-1362 -68 -1442 -20 -23 -59 -52 -87 -64 l-50 -24 -2216 0 c-2489 0 -2268 -7
-2352 78 -83 84 -77 -28 -77 1451 0 1483 -6 1371 78 1454 84 83 -135 76 2347
76 l2220 1 50 -24z"/>
<path d="M1540 4047 c-141 -41 -265 -154 -317 -289 -11 -29 -17 -76 -17 -148
-1 -87 -5 -110 -21 -135 -32 -47 -25 -109 25 -207 56 -109 120 -282 120 -324
0 -48 -38 -86 -149 -151 -147 -86 -314 -196 -360 -238 -98 -89 -140 -227 -110
-365 10 -45 16 -54 45 -66 28 -12 174 -14 872 -14 571 0 849 3 870 11 39 13
52 49 52 145 0 101 -16 166 -54 222 -51 73 -246 213 -445 318 -104 55 -114 73
-108 200 5 108 12 129 63 186 43 48 76 124 75 173 -4 305 -9 372 -30 426 -63
165 -342 305 -511 256z"/>
<path d="M2840 3663 c-25 -23 -32 -38 -37 -83 -7 -73 10 -133 45 -156 26 -18
71 -19 1012 -22 542 -2 1004 0 1028 3 23 4 54 17 69 29 23 20 27 33 31 89 5
83 -2 112 -35 143 l-26 24 -1028 0 -1029 0 -30 -27z"/>
<path d="M2865 3221 c-48 -20 -60 -48 -60 -137 0 -78 2 -85 28 -111 l27 -28
711 0 711 0 24 28 c21 25 24 38 24 112 0 74 -3 87 -24 112 l-24 28 -699 2
c-384 1 -707 -2 -718 -6z"/>
<path d="M2837 2734 c-48 -48 -49 -180 -1 -227 13 -13 38 -27 55 -31 55 -11
1501 -7 1541 4 60 17 78 49 78 142 0 75 -2 81 -29 109 l-29 29 -795 0 -794 0
-26 -26z"/>
</g>
</svg>
