<?xml version="1.0" encoding="utf-8"?>
<!-- Generator: Adobe Illustrator 16.0.0, SVG Export Plug-In . SVG Version: 6.00 Build 0)  -->
<!DOCTYPE svg PUBLIC "-//W3C//DTD SVG 1.1//EN" "http://www.w3.org/Graphics/SVG/1.1/DTD/svg11.dtd">
<svg version="1.1" id="Layer_1" xmlns="http://www.w3.org/2000/svg" xmlns:xlink="http://www.w3.org/1999/xlink" x="0px" y="0px"
	 width="125px" height="60px" viewBox="0 0 125 60" enable-background="new 0 0 125 60" xml:space="preserve">
<g>
	<polygon fill="#4E9BC7" points="16.464,42.162 13.914,53.024 13.877,53.024 11.483,42.162 7.784,42.162 5.466,53.024 5.428,53.024 
		2.898,42.162 0.035,42.162 3.638,55.749 7.16,55.749 9.576,44.888 9.613,44.888 12.066,55.749 15.571,55.749 19.113,42.162 	"/>
	<g>
		<path fill="#4E9BC7" d="M23.237,45.673c2.925,0,5.163,1.969,5.163,5.22c0,2.831-1.893,5.087-5.163,5.087
			c-3.249,0-5.143-2.256-5.143-5.087C18.094,47.642,20.331,45.673,23.237,45.673 M23.237,53.989c1.968,0,2.485-1.757,2.485-3.401
			c0-1.513-0.804-2.927-2.485-2.927c-1.662,0-2.466,1.454-2.466,2.927C20.771,52.211,21.287,53.989,23.237,53.989"/>
		<path fill="#4E9BC7" d="M29.101,45.902h2.274v2.237h0.037c0.115-0.918,1.169-2.467,2.696-2.467c0.25,0,0.516,0,0.784,0.077v2.582
			c-0.229-0.135-0.688-0.211-1.148-0.211c-2.084,0-2.084,2.6-2.084,4.016v3.612h-2.56V45.902z"/>
		<rect x="35.551" y="42.403" fill="#4E9BC7" width="2.56" height="13.346"/>
		<path fill="#4E9BC7" d="M45.881,54.64h-0.039c-0.763,0.958-1.816,1.34-3.02,1.34c-3.021,0-4.13-2.487-4.13-5.182
			c0-2.715,1.109-5.125,4.13-5.125c1.279,0,2.181,0.439,2.944,1.378h0.038v-4.647h2.562v13.346h-2.486V54.64z M43.528,53.989
			c1.701,0,2.257-1.797,2.257-3.191c0-1.376-0.649-3.137-2.294-3.137c-1.663,0-2.123,1.817-2.123,3.137
			C41.368,52.154,41.847,53.989,43.528,53.989"/>
		<path fill="#4E9BC7" d="M70.258,55.194c-0.936,0.517-2.007,0.785-3.386,0.785c-3.249,0-5.143-1.874-5.143-5.107
			c0-2.847,1.511-5.199,4.569-5.199c3.653,0,4.687,2.507,4.687,5.946h-6.81c0.115,1.587,1.226,2.486,2.812,2.486
			c1.241,0,2.313-0.46,3.27-0.995V55.194z M68.537,49.86c-0.076-1.243-0.649-2.313-2.084-2.313c-1.436,0-2.162,0.996-2.277,2.313
			H68.537z"/>
		<path fill="#4E9BC7" d="M95.845,53.092h0.038l2.372-7.189h2.599l-3.688,9.769c-0.823,2.182-1.415,4.324-4.093,4.324
			c-0.612,0-1.226-0.097-1.816-0.269l0.172-1.893c0.323,0.114,0.688,0.172,1.321,0.172c1.03,0,1.662-0.708,1.662-1.758
			l-3.769-10.346h2.833L95.845,53.092z"/>
		<path fill="#4E9BC7" d="M72.317,46.418c0.994-0.457,2.331-0.745,3.422-0.745c3.001,0,4.245,1.242,4.245,4.149v1.262
			c0,0.994,0.019,1.741,0.036,2.467c0.021,0.745,0.06,1.433,0.115,2.198h-2.255c-0.095-0.516-0.095-1.166-0.114-1.47h-0.039
			c-0.593,1.087-1.874,1.7-3.04,1.7c-1.739,0-3.442-1.052-3.442-2.928c0-1.471,0.708-2.332,1.684-2.808
			c0.975-0.48,2.237-0.575,3.307-0.575h1.415c0-1.586-0.708-2.125-2.218-2.125c-1.091,0-2.179,0.422-3.04,1.073L72.317,46.418z
			 M75.317,54.105c0.785,0,1.396-0.344,1.797-0.881c0.423-0.556,0.536-1.26,0.536-2.025h-1.108c-1.146,0-2.849,0.189-2.849,1.701
			C73.693,53.742,74.401,54.105,75.317,54.105"/>
		<path fill="#4E9BC7" d="M87.766,54.64h-0.038c-0.764,0.958-1.815,1.34-3.02,1.34c-3.023,0-4.133-2.487-4.133-5.182
			c0-2.715,1.109-5.125,4.133-5.125c1.278,0,2.18,0.439,2.943,1.378h0.037v-4.647h2.562v13.346h-2.485V54.64z M85.414,53.989
			c1.702,0,2.257-1.797,2.257-3.191c0-1.376-0.648-3.137-2.295-3.137c-1.663,0-2.122,1.817-2.122,3.137
			C83.254,52.154,83.73,53.989,85.414,53.989"/>
		<path fill="#4E9BC7" d="M52.285,42.403h2.887c2.868,0,6.293-0.099,6.293,3.613c0,1.567-1.056,2.87-2.753,3.101v0.038
			c0.727,0.057,1.146,0.782,1.414,1.375l2.139,5.221h-2.979l-1.606-4.169c-0.381-0.994-0.727-1.377-1.855-1.377h-0.861v5.546h-2.677
			V42.403z M54.962,48.1h0.88c1.319,0,2.83-0.188,2.83-1.854c0-1.607-1.495-1.74-2.83-1.74h-0.88V48.1z"/>
		<polygon fill="#006EAF" points="0.335,17.266 4.622,17.266 4.622,35.271 12.923,35.271 12.923,38.639 0.335,38.639 		"/>
		<path fill="#006EAF" d="M26.133,37.752c-1.499,0.827-3.212,1.255-5.419,1.255c-5.208,0-8.242-3-8.242-8.174
			c0-4.564,2.42-8.333,7.322-8.333c5.85,0,7.501,4.012,7.501,9.523H16.395c0.183,2.545,1.96,3.983,4.5,3.983
			c1.993,0,3.708-0.735,5.238-1.593V37.752z M23.379,29.207c-0.126-1.991-1.043-3.706-3.341-3.706c-2.296,0-3.46,1.592-3.643,3.706
			H23.379z"/>
		<polygon fill="#006EAF" points="26.664,22.868 31.503,22.868 34.597,28.014 37.63,22.868 41.978,22.868 37.264,30.371 
			42.591,38.64 37.689,38.64 34.168,32.762 30.616,38.64 26.115,38.64 31.536,30.371 		"/>
		<polygon fill="#006EAF" points="44.383,17.266 51.241,17.266 56.325,33.465 56.388,33.465 61.47,17.266 68.329,17.266 
			68.329,38.639 64.226,38.639 64.226,21 64.164,21 58.407,38.639 54.304,38.639 48.548,21 48.485,21.061 48.485,38.639 
			44.383,38.639 		"/>
		<path fill="#006EAF" d="M84.278,38.64h-3.887v-2.144h-0.063c-1.256,1.531-3.031,2.511-5.176,2.511
			c-3.735,0-5.358-2.634-5.358-6.187v-9.952h4.102v8.422c0,1.929,0.031,4.531,2.667,4.531c2.97,0,3.615-3.214,3.615-5.235v-7.718
			h4.101V38.64z"/>
		<path fill="#006EAF" d="M85.742,22.868h3.894v2.145h0.058c1.286-1.806,3.034-2.514,5.175-2.514c3.736,0,5.362,2.636,5.362,6.188
			v9.953h-4.107v-8.421c0-1.931-0.028-4.533-2.661-4.533c-2.972,0-3.614,3.214-3.614,5.234v7.72h-4.105V22.868z"/>
		<path fill="#006EAF" d="M112.689,36.864h-0.058c-1.228,1.529-2.909,2.143-4.841,2.143c-4.837,0-6.613-3.983-6.613-8.299
			c0-4.348,1.776-8.208,6.613-8.208c2.053,0,3.495,0.707,4.716,2.207h0.063V16.05h4.103v22.59h-3.983V36.864z M108.924,35.822
			c2.727,0,3.614-2.878,3.614-5.114c0-2.205-1.042-5.022-3.675-5.022c-2.663,0-3.398,2.91-3.398,5.022
			C105.465,32.881,106.23,35.822,108.924,35.822"/>
		<path fill="#006EAF" d="M118.138,16.069h4.106v3.92h-4.106V16.069z M118.138,22.868h4.106V38.64h-4.106V22.868z"/>
		<polygon fill="#58595B" points="0.335,0.982 2.961,0.982 4.907,7.185 4.931,7.185 6.876,0.982 9.504,0.982 9.504,9.167 
			7.933,9.167 7.933,2.412 7.908,2.412 5.705,9.167 4.134,9.167 1.93,2.412 1.906,2.436 1.906,9.167 0.335,9.167 		"/>
		<path fill="#58595B" d="M15.233,8.825c-0.576,0.318-1.229,0.482-2.077,0.482c-1.992,0-3.153-1.148-3.153-3.13
			c0-1.746,0.926-3.19,2.802-3.19c2.241,0,2.873,1.537,2.873,3.647h-4.174c0.069,0.974,0.751,1.525,1.724,1.525
			c0.762,0,1.418-0.281,2.005-0.609V8.825z M14.176,5.555c-0.045-0.762-0.396-1.419-1.277-1.419s-1.326,0.61-1.396,1.419H14.176z"/>
		<path fill="#58595B" d="M16.119,3.128h1.464v0.844h0.022c0.492-0.739,1.208-0.986,1.794-0.986c0.844,0,1.443,0.317,1.784,1.068
			c0.363-0.727,1.147-1.068,1.887-1.068c1.489,0,1.913,1.021,1.913,2.369v3.811H23.41V5.567c0-0.565,0-1.361-0.903-1.361
			c-1.041,0-1.171,1.242-1.171,2.029v2.931h-1.571V5.567c0-0.565,0-1.361-0.903-1.361c-1.043,0-1.174,1.242-1.174,2.029v2.931
			h-1.567V3.128z"/>
		<path fill="#58595B" d="M25.561,0.373h1.573v3.529h0.021c0.435-0.575,0.987-0.916,1.808-0.916c1.852,0,2.532,1.479,2.532,3.143
			c0,1.653-0.68,3.177-2.532,3.177c-0.67,0-1.397-0.234-1.853-0.879h-0.024v0.739h-1.525V0.373z M28.528,8.087
			c1.031,0,1.324-1.125,1.324-1.958c0-0.809-0.28-1.923-1.3-1.923c-1.009,0-1.408,1.078-1.408,1.923
			C27.144,6.984,27.483,8.087,28.528,8.087"/>
		<path fill="#58595B" d="M37.091,8.825c-0.575,0.318-1.231,0.482-2.076,0.482c-1.993,0-3.153-1.148-3.153-3.13
			c0-1.746,0.927-3.19,2.803-3.19c2.238,0,2.872,1.537,2.872,3.647h-4.175c0.07,0.974,0.75,1.525,1.725,1.525
			c0.76,0,1.417-0.281,2.003-0.609V8.825z M36.036,5.555c-0.046-0.762-0.398-1.419-1.278-1.419c-0.878,0-1.325,0.61-1.395,1.419
			H36.036z"/>
		<path fill="#58595B" d="M37.975,3.128h1.397V4.5h0.023c0.071-0.563,0.715-1.513,1.654-1.513c0.152,0,0.316,0,0.48,0.047v1.583
			c-0.141-0.082-0.422-0.129-0.704-0.129c-1.278,0-1.278,1.595-1.278,2.463v2.215h-1.572V3.128z"/>
	</g>
</g>
</svg>
